ffmpeg started on 2025-06-05 at 19:14:06
Report written to "D:\Convert\FFMetrics\reports\ssim_report-6.txt"
Log level: 32
Command line:
ffmpeg -hide_banner -nostdin -i "G:\\\xc0\xed\xe8\xec\xe5\\\xce\xed\xe3\xee\xe8\xed\xe3\xe8\\!_36_\xce\xf1\xe5\xed\xfc_2024\\DreamCast\\\xca\xee\xec\xef\xe0\xed\xe8\xff \xab\xcc\xe0\xe3\xe8-\xcb\xfe\xec\xfc\xe5\xf0\xbb\\[DC] Kabushikigaisha Magilumiere - 07_Telegram_HEVC.mkv" -i "G:\\\xc0\xed\xe8\xec\xe5\\\xce\xed\xe3\xee\xe8\xed\xe3\xe8\\!_36_\xce\xf1\xe5\xed\xfc_2024\\DreamCast\\\xca\xee\xec\xef\xe0\xed\xe8\xff \xab\xcc\xe0\xe3\xe8-\xcb\xfe\xec\xfc\xe5\xf0\xbb\\[DC] Kabushikigaisha Magilumiere - 07_Telegram.mp4" -lavfi "[0:v]settb=AVTB,setpts=PTS-STARTPTS,format=pix_fmts=yuv420p10,fps=24000/1001,scale=1920:1080:flags=bicubic[main];[1:v]settb=AVTB,setpts=PTS-STARTPTS,format=pix_fmts=yuv420p,fps=24000/1001,scale=1920:1080:flags=bicubic[ref];[main][ref]ssim=eof_action=endall:stats_file='D\\:/Convert/FFMetrics/logs/ssim_logfile-6.txt'" -f null -
Input #0, matroska,webm, from 'G:\Аниме\Онгоинги\!_36_Осень_2024\DreamCast\Компания «Маги-Люмьер»\[DC] Kabushikigaisha Magilumiere - 07_Telegram_HEVC.mkv':
  Metadata:
    COMPATIBLE_BRANDS: isomiso2avc1mp41
    MAJOR_BRAND     : isom
    MINOR_VERSION   : 512
    ENCODER         : Lavf61.7.100
  Duration: 00:24:06.61, start: -0.021000, bitrate: 1714 kb/s
  Stream #0:0: Video: hevc (Main 10), yuv420p10le(tv, bt709, progressive), 1920x1080 [SAR 1:1 DAR 16:9], 23.98 fps, 23.98 tbr, 1k tbn (default)
      Metadata:
        HANDLER_NAME    : VideoHandler
        VENDOR_ID       : [0][0][0][0]
        ENCODER         : Lavc61.19.100 libx265
        BPS             : 1516018
        DURATION        : 00:24:06.528708333
        NUMBER_OF_FRAMES: 34682
        NUMBER_OF_BYTES : 274120459
        _STATISTICS_WRITING_APP: mkvpropedit v66.0.0 ('Josie') 64-bit
        _STATISTICS_WRITING_DATE_UTC: 2025-05-30 18:21:56
        _STATISTICS_TAGS: BPS DURATION NUMBER_OF_FRAMES NUMBER_OF_BYTES
  Stream #0:1: Audio: aac (LC), 48000 Hz, stereo, fltp (default)
      Metadata:
        HANDLER_NAME    : SoundHandler
        VENDOR_ID       : [0][0][0][0]
        ENCODER         : Lavc61.19.100 aac
        BPS             : 194062
        DURATION        : 00:24:06.613000000
        NUMBER_OF_FRAMES: 67811
        NUMBER_OF_BYTES : 35091638
        _STATISTICS_WRITING_APP: mkvpropedit v66.0.0 ('Josie') 64-bit
        _STATISTICS_WRITING_DATE_UTC: 2025-05-30 18:21:56
        _STATISTICS_TAGS: BPS DURATION NUMBER_OF_FRAMES NUMBER_OF_BYTES
Input #1, mov,mp4,m4a,3gp,3g2,mj2, from 'G:\Аниме\Онгоинги\!_36_Осень_2024\DreamCast\Компания «Маги-Люмьер»\[DC] Kabushikigaisha Magilumiere - 07_Telegram.mp4':
  Metadata:
    major_brand     : isom
    minor_version   : 512
    compatible_brands: isomiso2avc1mp41
    encoder         : Lavf61.1.100
  Duration: 00:24:06.59, start: 0.000000, bitrate: 3575 kb/s
  Stream #1:0[0x1](und): Video: h264 (High) (avc1 / 0x31637661), yuv420p(tv, bt709, progressive), 1920x1080 [SAR 1:1 DAR 16:9], 3427 kb/s, 23.98 fps, 23.98 tbr, 24k tbn (default)
      Metadata:
        handler_name    : VideoHandler
        vendor_id       : [0][0][0][0]
        encoder         : Lavc61.3.100 h264_qsv
  Stream #1:1[0x2](und): Audio: aac (HE-AACv2) (mp4a / 0x6134706D), 48000 Hz, stereo, fltp, 144 kb/s (default)
      Metadata:
        handler_name    : SoundHandler
        vendor_id       : [0][0][0][0]
Stream mapping:
  Stream #0:0 (hevc) -> settb:default
  Stream #1:0 (h264) -> settb:default
  ssim:default -> Stream #0:0 (wrapped_avframe)
  Stream #0:1 -> #0:1 (aac (native) -> pcm_s16le (native))
Output #0, null, to 'pipe:':
  Metadata:
    COMPATIBLE_BRANDS: isomiso2avc1mp41
    MAJOR_BRAND     : isom
    MINOR_VERSION   : 512
    encoder         : Lavf61.7.100
  Stream #0:0: Video: wrapped_avframe, yuv420p10le(tv, bt709, progressive), 1920x1080 [SAR 1:1 DAR 16:9], q=2-31, 200 kb/s, 23.98 fps, 23.98 tbn
      Metadata:
        encoder         : Lavc61.19.100 wrapped_avframe
  Stream #0:1: Audio: pcm_s16le, 48000 Hz, stereo, s16, 1536 kb/s (default)
      Metadata:
        HANDLER_NAME    : SoundHandler
        VENDOR_ID       : [0][0][0][0]
        _STATISTICS_TAGS: BPS DURATION NUMBER_OF_FRAMES NUMBER_OF_BYTES
        BPS             : 194062
        DURATION        : 00:24:06.613000000
        NUMBER_OF_FRAMES: 67811
        NUMBER_OF_BYTES : 35091638
        _STATISTICS_WRITING_APP: mkvpropedit v66.0.0 ('Josie') 64-bit
        _STATISTICS_WRITING_DATE_UTC: 2025-05-30 18:21:56
        encoder         : Lavc61.19.100 pcm_s16le
frame=  170 fps=0.0 q=-0.0 size=N/A time=00:00:07.09 bitrate=N/A speed=  14x    frame=  397 fps=386 q=-0.0 size=N/A time=00:00:16.55 bitrate=N/A speed=16.1x    frame=  604 fps=391 q=-0.0 size=N/A time=00:00:25.19 bitrate=N/A speed=16.3x    frame=  788 fps=382 q=-0.0 size=N/A time=00:00:32.86 bitrate=N/A speed=15.9x    frame= 1005 fps=390 q=-0.0 size=N/A time=00:00:41.91 bitrate=N/A speed=16.3x    frame= 1165 fps=378 q=-0.0 size=N/A time=00:00:48.59 bitrate=N/A speed=15.8x    frame= 1347 fps=374 q=-0.0 size=N/A time=00:00:56.18 bitrate=N/A speed=15.6x    frame= 1480 fps=360 q=-0.0 size=N/A time=00:01:01.72 bitrate=N/A speed=  15x    frame= 1672 fps=361 q=-0.0 size=N/A time=00:01:09.73 bitrate=N/A speed=15.1x    frame= 1872 fps=364 q=-0.0 size=N/A time=00:01:18.07 bitrate=N/A speed=15.2x    frame= 2074 fps=366 q=-0.0 size=N/A time=00:01:26.50 bitrate=N/A speed=15.3x    frame= 2291 fps=370 q=-0.0 size=N/A time=00:01:35.55 bitrate=N/A speed=15.4x    frame= 2446 fps=365 q=-0.0 size=N/A time=00:01:42.01 bitrate=N/A speed=15.2x    frame= 2593 fps=359 q=-0.0 size=N/A time=00:01:48.14 bitrate=N/A speed=  15x    frame= 2786 fps=361 q=-0.0 size=N/A time=00:01:56.19 bitrate=N/A speed=  15x    frame= 2988 fps=363 q=-0.0 size=N/A time=00:02:04.62 bitrate=N/A speed=15.1x    frame= 3176 fps=363 q=-0.0 size=N/A time=00:02:12.46 bitrate=N/A speed=15.1x    frame= 3359 fps=362 q=-0.0 size=N/A time=00:02:20.09 bitrate=N/A speed=15.1x    frame= 3592 fps=367 q=-0.0 size=N/A time=00:02:29.81 bitrate=N/A speed=15.3x    frame= 3841 fps=373 q=-0.0 size=N/A time=00:02:40.20 bitrate=N/A speed=15.6x    frame= 4072 fps=376 q=-0.0 size=N/A time=00:02:49.83 bitrate=N/A speed=15.7x    frame= 4286 fps=378 q=-0.0 size=N/A time=00:02:58.76 bitrate=N/A speed=15.8x    frame= 4503 fps=380 q=-0.0 size=N/A time=00:03:07.81 bitrate=N/A speed=15.9x    frame= 4707 fps=380 q=-0.0 size=N/A time=00:03:16.32 bitrate=N/A speed=15.9x    frame= 4899 fps=380 q=-0.0 size=N/A time=00:03:24.32 bitrate=N/A speed=15.9x    frame= 5105 fps=381 q=-0.0 size=N/A time=00:03:32.92 bitrate=N/A speed=15.9x    frame= 5331 fps=383 q=-0.0 size=N/A time=00:03:42.34 bitrate=N/A speed=  16x    frame= 5531 fps=383 q=-0.0 size=N/A time=00:03:50.68 bitrate=N/A speed=  16x    frame= 5749 fps=385 q=-0.0 size=N/A time=00:03:59.78 bitrate=N/A speed=  16x    frame= 5955 fps=385 q=-0.0 size=N/A time=00:04:08.37 bitrate=N/A speed=16.1x    frame= 6193 fps=388 q=-0.0 size=N/A time=00:04:18.29 bitrate=N/A speed=16.2x    frame= 6388 fps=387 q=-0.0 size=N/A time=00:04:26.43 bitrate=N/A speed=16.1x    frame= 6575 fps=386 q=-0.0 size=N/A time=00:04:34.23 bitrate=N/A speed=16.1x    frame= 6796 fps=388 q=-0.0 size=N/A time=00:04:43.44 bitrate=N/A speed=16.2x    frame= 7044 fps=391 q=-0.0 size=N/A time=00:04:53.79 bitrate=N/A speed=16.3x    frame= 7299 fps=393 q=-0.0 size=N/A time=00:05:04.42 bitrate=N/A speed=16.4x    frame= 7539 fps=395 q=-0.0 size=N/A time=00:05:14.43 bitrate=N/A speed=16.5x    frame= 7769 fps=397 q=-0.0 size=N/A time=00:05:24.03 bitrate=N/A speed=16.6x    frame= 8016 fps=399 q=-0.0 size=N/A time=00:05:34.33 bitrate=N/A speed=16.6x    frame= 8260 fps=401 q=-0.0 size=N/A time=00:05:44.51 bitrate=N/A speed=16.7x    frame= 8523 fps=403 q=-0.0 size=N/A time=00:05:55.48 bitrate=N/A speed=16.8x    frame= 8702 fps=402 q=-0.0 size=N/A time=00:06:02.94 bitrate=N/A speed=16.8x    frame= 8900 fps=401 q=-0.0 size=N/A time=00:06:11.20 bitrate=N/A speed=16.7x    frame= 9104 fps=402 q=-0.0 size=N/A time=00:06:19.71 bitrate=N/A speed=16.7x    frame= 9311 fps=401 q=-0.0 size=N/A time=00:06:28.34 bitrate=N/A speed=16.7x    frame= 9519 fps=401 q=-0.0 size=N/A time=00:06:37.02 bitrate=N/A speed=16.7x    frame= 9714 fps=401 q=-0.0 size=N/A time=00:06:45.15 bitrate=N/A speed=16.7x    frame= 9893 fps=400 q=-0.0 size=N/A time=00:06:52.62 bitrate=N/A speed=16.7x    frame=10065 fps=398 q=-0.0 size=N/A time=00:06:59.79 bitrate=N/A speed=16.6x    frame=10256 fps=398 q=-0.0 size=N/A time=00:07:07.76 bitrate=N/A speed=16.6x    frame=10448 fps=398 q=-0.0 size=N/A time=00:07:15.76 bitrate=N/A speed=16.6x    frame=10689 fps=399 q=-0.0 size=N/A time=00:07:25.82 bitrate=N/A speed=16.6x    frame=10941 fps=401 q=-0.0 size=N/A time=00:07:36.33 bitrate=N/A speed=16.7x    frame=11205 fps=403 q=-0.0 size=N/A time=00:07:47.34 bitrate=N/A speed=16.8x    frame=11463 fps=404 q=-0.0 size=N/A time=00:07:58.10 bitrate=N/A speed=16.9x    frame=11722 fps=406 q=-0.0 size=N/A time=00:08:08.90 bitrate=N/A speed=16.9x    frame=11961 fps=407 q=-0.0 size=N/A time=00:08:18.87 bitrate=N/A speed=  17x    frame=12155 fps=407 q=-0.0 size=N/A time=00:08:26.96 bitrate=N/A speed=  17x    frame=12368 fps=407 q=-0.0 size=N/A time=00:08:35.84 bitrate=N/A speed=  17x    frame=12521 fps=405 q=-0.0 size=N/A time=00:08:42.23 bitrate=N/A speed=16.9x    frame=12722 fps=405 q=-0.0 size=N/A time=00:08:50.61 bitrate=N/A speed=16.9x    frame=12915 fps=404 q=-0.0 size=N/A time=00:08:58.66 bitrate=N/A speed=16.8x    frame=13150 fps=405 q=-0.0 size=N/A time=00:09:08.46 bitrate=N/A speed=16.9x    frame=13352 fps=405 q=-0.0 size=N/A time=00:09:16.88 bitrate=N/A speed=16.9x    frame=13510 fps=403 q=-0.0 size=N/A time=00:09:23.47 bitrate=N/A speed=16.8x    frame=13725 fps=403 q=-0.0 size=N/A time=00:09:32.44 bitrate=N/A speed=16.8x    frame=13874 fps=402 q=-0.0 size=N/A time=00:09:38.66 bitrate=N/A speed=16.8x    frame=14143 fps=403 q=-0.0 size=N/A time=00:09:49.88 bitrate=N/A speed=16.8x    frame=14297 fps=402 q=-0.0 size=N/A time=00:09:56.30 bitrate=N/A speed=16.8x    frame=14477 fps=401 q=-0.0 size=N/A time=00:10:03.81 bitrate=N/A speed=16.7x    frame=14626 fps=400 q=-0.0 size=N/A time=00:10:10.02 bitrate=N/A speed=16.7x    frame=14808 fps=399 q=-0.0 size=N/A time=00:10:17.61 bitrate=N/A speed=16.6x    frame=15009 fps=399 q=-0.0 size=N/A time=00:10:26.00 bitrate=N/A speed=16.6x    frame=15196 fps=398 q=-0.0 size=N/A time=00:10:33.79 bitrate=N/A speed=16.6x    frame=15399 fps=398 q=-0.0 size=N/A time=00:10:42.26 bitrate=N/A speed=16.6x    frame=15582 fps=398 q=-0.0 size=N/A time=00:10:49.89 bitrate=N/A speed=16.6x    frame=15748 fps=397 q=-0.0 size=N/A time=00:10:56.82 bitrate=N/A speed=16.5x    frame=15955 fps=397 q=-0.0 size=N/A time=00:11:05.45 bitrate=N/A speed=16.6x    frame=16154 fps=397 q=-0.0 size=N/A time=00:11:13.75 bitrate=N/A speed=16.5x    frame=16373 fps=397 q=-0.0 size=N/A time=00:11:22.89 bitrate=N/A speed=16.6x    frame=16627 fps=398 q=-0.0 size=N/A time=00:11:33.48 bitrate=N/A speed=16.6x    frame=16883 fps=399 q=-0.0 size=N/A time=00:11:44.16 bitrate=N/A speed=16.7x    frame=17119 fps=400 q=-0.0 size=N/A time=00:11:54.00 bitrate=N/A speed=16.7x    frame=17340 fps=400 q=-0.0 size=N/A time=00:12:03.22 bitrate=N/A speed=16.7x    frame=17580 fps=401 q=-0.0 size=N/A time=00:12:13.23 bitrate=N/A speed=16.7x    frame=17840 fps=402 q=-0.0 size=N/A time=00:12:24.07 bitrate=N/A speed=16.8x    frame=18107 fps=404 q=-0.0 size=N/A time=00:12:35.21 bitrate=N/A speed=16.8x    frame=18377 fps=405 q=-0.0 size=N/A time=00:12:46.47 bitrate=N/A speed=16.9x    frame=18611 fps=406 q=-0.0 size=N/A time=00:12:56.23 bitrate=N/A speed=16.9x    frame=18857 fps=406 q=-0.0 size=N/A time=00:13:06.49 bitrate=N/A speed=  17x    frame=19106 fps=407 q=-0.0 size=N/A time=00:13:16.87 bitrate=N/A speed=  17x    frame=19349 fps=408 q=-0.0 size=N/A time=00:13:27.01 bitrate=N/A speed=  17x    frame=19583 fps=408 q=-0.0 size=N/A time=00:13:36.77 bitrate=N/A speed=  17x    frame=19811 fps=409 q=-0.0 size=N/A time=00:13:46.28 bitrate=N/A speed=17.1x    frame=20017 fps=409 q=-0.0 size=N/A time=00:13:54.87 bitrate=N/A speed=  17x    frame=20235 fps=409 q=-0.0 size=N/A time=00:14:03.96 bitrate=N/A speed=17.1x    frame=20482 fps=410 q=-0.0 size=N/A time=00:14:14.27 bitrate=N/A speed=17.1x    frame=20744 fps=411 q=-0.0 size=N/A time=00:14:25.19 bitrate=N/A speed=17.1x    frame=21013 fps=412 q=-0.0 size=N/A time=00:14:36.41 bitrate=N/A speed=17.2x    frame=21278 fps=413 q=-0.0 size=N/A time=00:14:47.46 bitrate=N/A speed=17.2x    frame=21517 fps=413 q=-0.0 size=N/A time=00:14:57.43 bitrate=N/A speed=17.2x    frame=21752 fps=414 q=-0.0 size=N/A time=00:15:07.23 bitrate=N/A speed=17.3x    frame=21961 fps=414 q=-0.0 size=N/A time=00:15:15.95 bitrate=N/A speed=17.2x    frame=22169 fps=414 q=-0.0 size=N/A time=00:15:24.63 bitrate=N/A speed=17.2x    frame=22386 fps=414 q=-0.0 size=N/A time=00:15:33.68 bitrate=N/A speed=17.3x    frame=22623 fps=414 q=-0.0 size=N/A time=00:15:43.56 bitrate=N/A speed=17.3x    frame=22832 fps=414 q=-0.0 size=N/A time=00:15:52.28 bitrate=N/A speed=17.3x    frame=23074 fps=414 q=-0.0 size=N/A time=00:16:02.37 bitrate=N/A speed=17.3x    frame=23306 fps=415 q=-0.0 size=N/A time=00:16:12.05 bitrate=N/A speed=17.3x    frame=23542 fps=415 q=-0.0 size=N/A time=00:16:21.89 bitrate=N/A speed=17.3x    frame=23733 fps=415 q=-0.0 size=N/A time=00:16:29.86 bitrate=N/A speed=17.3x    frame=23968 fps=415 q=-0.0 size=N/A time=00:16:39.66 bitrate=N/A speed=17.3x    frame=24228 fps=416 q=-0.0 size=N/A time=00:16:50.50 bitrate=N/A speed=17.3x    frame=24499 fps=417 q=-0.0 size=N/A time=00:17:01.81 bitrate=N/A speed=17.4x    frame=24766 fps=418 q=-0.0 size=N/A time=00:17:12.94 bitrate=N/A speed=17.4x    frame=25018 fps=418 q=-0.0 size=N/A time=00:17:23.45 bitrate=N/A speed=17.4x    frame=25262 fps=419 q=-0.0 size=N/A time=00:17:33.63 bitrate=N/A speed=17.5x    frame=25525 fps=420 q=-0.0 size=N/A time=00:17:44.60 bitrate=N/A speed=17.5x    frame=25792 fps=420 q=-0.0 size=N/A time=00:17:55.74 bitrate=N/A speed=17.5x    frame=26052 fps=421 q=-0.0 size=N/A time=00:18:06.58 bitrate=N/A speed=17.6x    frame=26306 fps=422 q=-0.0 size=N/A time=00:18:17.17 bitrate=N/A speed=17.6x    frame=26572 fps=422 q=-0.0 size=N/A time=00:18:28.27 bitrate=N/A speed=17.6x    frame=26825 fps=423 q=-0.0 size=N/A time=00:18:38.82 bitrate=N/A speed=17.6x    frame=27062 fps=423 q=-0.0 size=N/A time=00:18:48.71 bitrate=N/A speed=17.7x    frame=27303 fps=424 q=-0.0 size=N/A time=00:18:58.76 bitrate=N/A speed=17.7x    frame=27577 fps=425 q=-0.0 size=N/A time=00:19:10.19 bitrate=N/A speed=17.7x    frame=27847 fps=425 q=-0.0 size=N/A time=00:19:21.45 bitrate=N/A speed=17.7x    frame=28123 fps=426 q=-0.0 size=N/A time=00:19:32.96 bitrate=N/A speed=17.8x    frame=28351 fps=426 q=-0.0 size=N/A time=00:19:42.47 bitrate=N/A speed=17.8x    frame=28619 fps=427 q=-0.0 size=N/A time=00:19:53.65 bitrate=N/A speed=17.8x    frame=28880 fps=428 q=-0.0 size=N/A time=00:20:04.53 bitrate=N/A speed=17.8x    frame=29101 fps=428 q=-0.0 size=N/A time=00:20:13.75 bitrate=N/A speed=17.8x    frame=29317 fps=428 q=-0.0 size=N/A time=00:20:22.76 bitrate=N/A speed=17.8x    frame=29533 fps=427 q=-0.0 size=N/A time=00:20:31.77 bitrate=N/A speed=17.8x    frame=29736 fps=427 q=-0.0 size=N/A time=00:20:40.23 bitrate=N/A speed=17.8x    frame=29876 fps=426 q=-0.0 size=N/A time=00:20:46.07 bitrate=N/A speed=17.8x    frame=30051 fps=425 q=-0.0 size=N/A time=00:20:53.37 bitrate=N/A speed=17.7x    frame=30268 fps=425 q=-0.0 size=N/A time=00:21:02.42 bitrate=N/A speed=17.7x    frame=30458 fps=425 q=-0.0 size=N/A time=00:21:10.35 bitrate=N/A speed=17.7x    frame=30565 fps=423 q=-0.0 size=N/A time=00:21:14.81 bitrate=N/A speed=17.7x    frame=30705 fps=422 q=-0.0 size=N/A time=00:21:20.65 bitrate=N/A speed=17.6x    frame=30892 fps=422 q=-0.0 size=N/A time=00:21:28.45 bitrate=N/A speed=17.6x    frame=31142 fps=422 q=-0.0 size=N/A time=00:21:38.88 bitrate=N/A speed=17.6x    frame=31393 fps=423 q=-0.0 size=N/A time=00:21:49.34 bitrate=N/A speed=17.6x    frame=31650 fps=423 q=-0.0 size=N/A time=00:22:00.06 bitrate=N/A speed=17.7x    frame=31896 fps=424 q=-0.0 size=N/A time=00:22:10.32 bitrate=N/A speed=17.7x    frame=32148 fps=424 q=-0.0 size=N/A time=00:22:20.83 bitrate=N/A speed=17.7x    frame=32405 fps=425 q=-0.0 size=N/A time=00:22:31.55 bitrate=N/A speed=17.7x    frame=32686 fps=426 q=-0.0 size=N/A time=00:22:43.27 bitrate=N/A speed=17.7x    frame=32959 fps=426 q=-0.0 size=N/A time=00:22:54.66 bitrate=N/A speed=17.8x    frame=33230 fps=427 q=-0.0 size=N/A time=00:23:05.96 bitrate=N/A speed=17.8x    frame=33456 fps=427 q=-0.0 size=N/A time=00:23:15.39 bitrate=N/A speed=17.8x    frame=33714 fps=427 q=-0.0 size=N/A time=00:23:26.15 bitrate=N/A speed=17.8x    frame=33974 fps=428 q=-0.0 size=N/A time=00:23:36.99 bitrate=N/A speed=17.8x    frame=34213 fps=428 q=-0.0 size=N/A time=00:23:46.96 bitrate=N/A speed=17.9x    frame=34435 fps=428 q=-0.0 size=N/A time=00:23:56.22 bitrate=N/A speed=17.9x    frame=34665 fps=428 q=-0.0 size=N/A time=00:24:05.81 bitrate=N/A speed=17.9x    [Parsed_ssim_10 @ 0000022b486a6480] SSIM Y:0.994075 (22.272816) U:0.993674 (21.988629) V:0.993633 (21.960515) All:0.993934 (22.171101)
[out#0/null @ 0000022b45da4780] video:14902KiB audio:271244KiB subtitle:0KiB other streams:0KiB global headers:0KiB muxing overhead: unknown
frame=34682 fps=428 q=-0.0 Lsize=N/A time=00:24:06.52 bitrate=N/A speed=17.9x    
